<?xml version="1.0" encoding="UTF-8"?>
<svg xmlns="http://www.w3.org/2000/svg" id="Layer_1" viewBox="0 0 600 600">
  <defs>
    <style>.cls-1{fill:#a3816d;}</style>
  </defs>
  <path class="cls-1" d="m71.1,325.67h-21.1v4.36h21.1v-4.36Z"></path>
  <path d="m128.64,273.37v-4.36h-18.73l-19.91,37.02-20.11-37.02h-19.88v4.36h11.84l23.72,43.59h3.77l21.96-39.23v47.94h-7.94v4.36h25.28v-4.36h-7.94v-52.3h7.94Z"></path>
  <path d="m136.91,311.9c0-3.85.09-7.77.26-11.77.18-4,.25-7.85.25-11.5h-6.61v-4.36h15.68c-.11,4.52-.21,8.82-.3,13.02-.09,4.2-.12,8.47-.12,12.95,0,8.61,1.23,14.82,9.75,14.82,6.12,0,9.9-4.43,11.85-10.28v-30.5h9.15v41.4h6.46v4.36h-15.61v-9.95c-1.27,5.29-7.41,10.81-14.82,10.81-10.11,0-15.95-3.63-15.95-19Z"></path>
  <path d="m339.29,317.91c0,2.36.1,5.29.35,7.76h5.84v4.36h-15.08v-8.29c0,.25-2.77,9.24-14.38,9.24-7.43,0-13.6-4.37-13.6-12.12,0-9.23,6.53-12.52,15.79-13.78,4.04-.5,8.11-.76,12.19-.78.19-1.69.25-3.38.18-5.08,0-8.7-3.3-10.95-8.36-10.95-2.53-.22-5.08.2-7.41,1.2v7.87h-7.85v-9.68c5.39-2.89,11.42-4.36,17.53-4.27,11.57,0,15.24,5.29,15.24,14.29s-.44,11.99-.44,20.23Zm-19.26,7.23c4.73,0,8.17-2.79,10.37-6.88v-10.37c-3.08-.06-6.16.19-9.19.74-5.29,1.09-9.01,3.07-9.01,8.48s3.12,8.03,7.83,8.03Z"></path>
  <path d="m412.51,317.91c0,2.36.1,5.29.35,7.76h5.84v4.36h-15.08v-8.29c0,.25-2.79,9.24-14.38,9.24-7.44,0-13.6-4.37-13.6-12.12,0-9.23,6.51-12.52,15.77-13.78,4.05-.5,8.13-.76,12.21-.78.19-1.69.24-3.38.18-5.08,0-8.7-3.3-10.95-8.36-10.95-2.53-.22-5.07.2-7.41,1.2v7.87h-7.85v-9.68c5.39-2.89,11.42-4.36,17.53-4.27,11.57,0,15.24,5.29,15.24,14.29s-.44,11.99-.44,20.23Zm-19.26,7.23c4.73,0,8.17-2.79,10.37-6.88v-10.37c-3.08-.06-6.16.19-9.19.74-5.29,1.09-9.03,3.07-9.03,8.48s3.12,8.03,7.85,8.03Z"></path>
  <path d="m512.02,317.91c0,2.36.11,5.29.35,7.76h5.78v4.36h-15.08v-8.29c0,.25-2.78,9.24-14.37,9.24-7.44,0-13.6-4.37-13.6-12.12,0-9.23,6.51-12.52,15.77-13.78,4.05-.5,8.13-.76,12.21-.78.19-1.69.25-3.38.18-5.08,0-8.7-3.3-10.95-8.36-10.95-2.53-.22-5.07.2-7.41,1.2v7.87h-7.85v-9.68c5.39-2.89,11.42-4.36,17.53-4.27,11.57,0,15.24,5.29,15.24,14.29.05,9.3-.39,11.99-.39,20.23Zm-19.26,7.23c4.73,0,8.17-2.79,10.37-6.88v-10.37c-3.08-.06-6.16.19-9.19.74-5.29,1.09-9.03,3.07-9.03,8.48s3.12,8.03,7.85,8.03Z"></path>
  <path d="m372.11,330.03h-22.05v-4.36h6.46v-52.3h-7.41v-4.36h16.56v56.66h6.44v4.36Z"></path>
  <path d="m448.64,284.27h19.17v4.36h-5.58l-13.51,15.59,17.78,21.45h4.36v4.36h-12.56l-16.21-21.71h-3.21v17.36h6.44v4.36h-22.05v-4.36h6.46v-52.3h-7.41v-4.36h16.56v35.83h3.03l13.35-16.21h-6.63v-4.36Z"></path>
  <path d="m550,289.85v-5.57h-14.46v-15.26h-9.16v15.26h-7.76v5.57h7.76v27.96c0,3.24,1.29,6.35,3.58,8.64,2.29,2.29,5.4,3.58,8.64,3.58h9.82v-4.36h-7.34c-1.45,0-2.85-.58-3.88-1.61-1.03-1.03-1.61-2.42-1.61-3.88v-30.34h14.39Z"></path>
  <path d="m299.82,289.85v-5.57h-14.5v-15.26h-9.15v15.26h-7.76v5.57h7.76v27.96c0,1.6.31,3.19.92,4.68.61,1.48,1.51,2.83,2.64,3.97,1.13,1.14,2.48,2.04,3.96,2.65,1.48.61,3.07.93,4.68.93h9.84v-4.36h-7.41c-1.46,0-2.85-.58-3.88-1.61-1.03-1.03-1.61-2.42-1.61-3.88v-30.34h14.5Z"></path>
  <path d="m261.39,292.67c.43,3.31.54,6.65.34,9.98v23.11h6.44v4.36h-21.34v-4.45h5.75v-22.84c0-7.94-1.04-13.6-8.98-13.6-9.08,0-10.9,6.26-10.9,10.28v26.16h6.1v4.36h-21.01v-4.36h5.8v-21.17c0-8.48-.53-15.26-8.71-15.26-7.06,0-11.11,6.81-10.97,11.5v24.92h5.75v4.36h-21.34v-4.36h6.46v-37.04h-6.46v-4.36h15.61v4.2c4.01-3.08,8.87-4.86,13.92-5.08,5.19,0,10.42,1.06,13.25,5.4,4.56-3.27,9.98-5.12,15.59-5.29,7.06,0,13.46,2.22,14.76,9.19"></path>
</svg>
